<svg width="377.186401" height="417.616241" viewBox="0 0 377.186 417.616" fill="none" xmlns="http://www.w3.org/2000/svg" xmlns:xlink="http://www.w3.org/1999/xlink">
	<desc>
			Created with Pixso.
	</desc>
	<defs/>
<!--	<rect width="377.186401" height="417.616241" fill="#EFEFEF"/>-->
	<path id="矢量 1" d="M124.68 127.11C111.81 122.49 124.68 118.11 124.68 118.11L295.68 35.11C295.68 35.11 337.56 12.86 350.68 6.11C363.81 -0.64 369.68 0.61 369.68 0.61C369.68 0.61 376.68 3.11 376.68 13.61C376.68 24.11 363.68 53.61 363.68 53.61C363.68 53.61 350.18 87.23 332.18 118.11C314.18 148.99 285.68 190.11 285.68 190.11L236.68 252.11L196.68 296.61C196.68 296.61 161.68 333.11 119.68 363.11C77.68 393.11 27.18 417.11 27.18 417.11C27.18 417.11 9.18 416.86 3.18 413.11C-2.81 409.37 3.16 402.13 3.18 402.11L135.68 274.11L250.68 132.11C250.68 132.11 207.68 137.61 176.18 136.61C144.68 135.61 137.56 131.74 124.68 127.11Z" fill="#E5022E" fill-opacity="1.000000" fill-rule="evenodd"/>
	<path id="矢量 1" d="M124.68 118.11C124.68 118.11 111.81 122.49 124.68 127.11C137.56 131.74 144.68 135.61 176.18 136.61C207.68 137.61 250.68 132.11 250.68 132.11L135.68 274.11L3.18 402.11C3.18 402.11 -2.82 409.36 3.18 413.11C9.18 416.86 27.18 417.11 27.18 417.11C27.18 417.11 77.68 393.11 119.68 363.11C161.68 333.11 196.68 296.61 196.68 296.61L236.68 252.11L285.68 190.11C285.68 190.11 314.18 148.99 332.18 118.11C350.18 87.23 363.68 53.61 363.68 53.61C363.68 53.61 376.68 24.11 376.68 13.61C376.68 3.11 369.68 0.61 369.68 0.61C369.68 0.61 363.81 -0.64 350.68 6.11C337.56 12.86 295.68 35.11 295.68 35.11L124.68 118.11Z" stroke="#000000" stroke-opacity="1.000000" stroke-width="1.000000"/>
</svg>
