<svg width="397.686401" height="545.614685" viewBox="0 0 397.686 545.615" fill="none" xmlns="http://www.w3.org/2000/svg" xmlns:xlink="http://www.w3.org/1999/xlink">
	<desc>
			Created with Pixso.
	</desc>
	<defs/>
<!--	<rect width="397.686401" height="545.614685" fill="#EFEFEF"/>-->
	<path id="矢量 1" d="M124.68 127.11C111.81 122.49 124.68 118.11 124.68 118.11L295.68 35.11C295.68 35.11 337.56 12.86 350.68 6.11C363.81 -0.64 369.68 0.61 369.68 0.61C369.68 0.61 376.68 3.11 376.68 13.61C376.68 24.11 363.68 53.61 363.68 53.61C363.68 53.61 350.18 87.23 332.18 118.11C314.18 148.99 285.68 190.11 285.68 190.11L236.68 252.11L196.68 296.61C196.68 296.61 161.68 333.11 119.68 363.11C77.68 393.11 27.18 417.11 27.18 417.11C27.18 417.11 9.18 416.86 3.18 413.11C-2.81 409.37 3.16 402.13 3.18 402.11L135.68 274.11L250.68 132.11C250.68 132.11 207.68 137.61 176.18 136.61C144.68 135.61 137.56 131.74 124.68 127.11Z" fill="#E5022E" fill-opacity="1.000000" fill-rule="evenodd"/>
	<path id="矢量 1" d="M124.68 118.11C124.68 118.11 111.81 122.49 124.68 127.11C137.56 131.74 144.68 135.61 176.18 136.61C207.68 137.61 250.68 132.11 250.68 132.11L135.68 274.11L3.18 402.11C3.18 402.11 -2.82 409.36 3.18 413.11C9.18 416.86 27.18 417.11 27.18 417.11C27.18 417.11 77.68 393.11 119.68 363.11C161.68 333.11 196.68 296.61 196.68 296.61L236.68 252.11L285.68 190.11C285.68 190.11 314.18 148.99 332.18 118.11C350.18 87.23 363.68 53.61 363.68 53.61C363.68 53.61 376.68 24.11 376.68 13.61C376.68 3.11 369.68 0.61 369.68 0.61C369.68 0.61 363.81 -0.64 350.68 6.11C337.56 12.86 295.68 35.11 295.68 35.11L124.68 118.11Z" stroke="#000000" stroke-opacity="1.000000" stroke-width="1.000000"/>
	<path id="矢量 2" d="M81.68 523.11C78.78 530.66 88.68 542.61 88.68 542.61C88.68 542.61 97.06 545.11 104.68 545.11C112.31 545.11 127.18 539.61 127.18 539.61C127.18 539.61 151.48 533.11 170.68 525.11L177.75 522.24C191.87 516.65 199.27 514.62 218.68 505.61C241.08 495.21 273.51 479.78 288.68 471.11C303.18 463.78 337.28 448.21 349.68 436.61C362.08 425.01 366.68 415.01 366.68 408.61L366.68 397.61C365.35 395.11 357.68 395.11 349.68 397.61C341.68 400.11 334.18 402.61 334.18 402.61L317.68 408.61L295.18 414.61L274.53 414.61C275.73 413.52 279.81 408.63 288.68 397.61C300.28 383.21 321.85 350.94 331.18 335.11C342.85 311.94 355.18 279.11 363.18 259.11C366.95 249.69 379.68 212.61 379.68 212.61C379.68 212.61 387.64 175.35 389.18 166.61C392.18 149.61 397.18 97.11 397.18 79.11C397.18 61.11 393.52 45.94 391.68 40.61C378.88 51.81 357.02 111.94 347.68 140.61C335.68 169.11 307.08 233.71 288.68 264.11C270.28 294.51 205.68 380.61 189.18 400.61C172.68 420.61 151.38 448.3 119.18 482.11C99.18 503.11 85.69 512.67 81.68 523.11Z" fill="#03A2E1" fill-opacity="1.000000" fill-rule="evenodd"/>
	<path id="矢量 2" d="M347.68 140.61C335.68 169.11 307.08 233.71 288.68 264.11C270.28 294.51 205.68 380.61 189.18 400.61C172.68 420.61 151.38 448.3 119.18 482.11C99.18 503.11 85.69 512.67 81.68 523.11C78.78 530.66 88.68 542.61 88.68 542.61C88.68 542.61 97.06 545.11 104.68 545.11C112.31 545.11 127.18 539.61 127.18 539.61C127.18 539.61 151.48 533.11 170.68 525.11C189.88 517.11 196.28 516.01 218.68 505.61C241.08 495.21 273.51 479.78 288.68 471.11C303.18 463.78 337.28 448.21 349.68 436.61C362.08 425.01 366.68 415.01 366.68 408.61C366.68 402.21 366.68 397.61 366.68 397.61C365.35 395.11 357.68 395.11 349.68 397.61C341.68 400.11 334.18 402.61 334.18 402.61L317.68 408.61L295.18 414.61L274.18 414.61C273.68 415.94 277.08 412.01 288.68 397.61C300.28 383.21 321.85 350.94 331.18 335.11C342.85 311.94 355.18 279.11 363.18 259.11C366.95 249.69 379.68 212.61 379.68 212.61C379.68 212.61 387.64 175.35 389.18 166.61C392.18 149.61 397.18 97.11 397.18 79.11C397.18 61.11 393.52 45.94 391.68 40.61C378.88 51.81 357.02 111.94 347.68 140.61ZM170.68 525.11L218.68 505.61" stroke="#000000" stroke-opacity="1.000000" stroke-width="1.000000"/>
</svg>
