<svg width="317.043335" height="505.866394" viewBox="0 0 317.043 505.866" fill="none" xmlns="http://www.w3.org/2000/svg" xmlns:xlink="http://www.w3.org/1999/xlink">
	<desc>
			Created with Pixso.
	</desc>
	<defs/>
	<rect width="317.043335" height="505.866394" fill="#EFEFEF"/>
	<path id="矢量 2" d="M1.04 483.36C-1.86 490.91 8.04 502.86 8.04 502.86C8.04 502.86 16.41 505.36 24.04 505.36C31.66 505.36 46.54 499.86 46.54 499.86C46.54 499.86 70.84 493.36 90.04 485.36L97.1 482.49C111.23 476.9 118.63 474.88 138.04 465.86C160.44 455.46 192.87 440.03 208.04 431.36C222.54 424.03 256.64 408.46 269.04 396.86C281.44 385.26 286.04 375.26 286.04 368.86L286.04 357.86C284.71 355.36 277.04 355.36 269.04 357.86C261.04 360.36 253.54 362.86 253.54 362.86L237.04 368.86L214.54 374.86L193.89 374.86C195.09 373.77 199.16 368.88 208.04 357.86C219.64 343.46 241.21 311.2 250.54 295.36C262.21 272.2 274.54 239.36 282.54 219.36C286.31 209.94 299.04 172.86 299.04 172.86C299.04 172.86 307 135.6 308.54 126.86C311.54 109.86 316.54 57.36 316.54 39.36C316.54 21.36 312.87 6.19 311.04 0.86C298.24 12.06 276.37 72.19 267.04 100.86C255.04 129.36 226.44 193.96 208.04 224.36C189.64 254.76 125.04 340.86 108.54 360.86C92.04 380.86 70.74 408.55 38.54 442.36C18.54 463.36 5.05 472.92 1.04 483.36Z" fill="#03A2E1" fill-opacity="1.000000" fill-rule="evenodd"/>
	<path id="矢量 2" d="M267.04 100.86C255.04 129.36 226.44 193.96 208.04 224.36C189.64 254.76 125.04 340.86 108.54 360.86C92.04 380.86 70.74 408.55 38.54 442.36C18.54 463.36 5.05 472.92 1.04 483.36C-1.86 490.91 8.04 502.86 8.04 502.86C8.04 502.86 16.41 505.36 24.04 505.36C31.66 505.36 46.54 499.86 46.54 499.86C46.54 499.86 70.84 493.36 90.04 485.36C109.24 477.36 115.64 476.26 138.04 465.86C160.44 455.46 192.87 440.03 208.04 431.36C222.54 424.03 256.64 408.46 269.04 396.86C281.44 385.26 286.04 375.26 286.04 368.86C286.04 362.46 286.04 357.86 286.04 357.86C284.71 355.36 277.04 355.36 269.04 357.86C261.04 360.36 253.54 362.86 253.54 362.86L237.04 368.86L214.54 374.86L193.54 374.86C193.04 376.2 196.44 372.26 208.04 357.86C219.64 343.46 241.21 311.2 250.54 295.36C262.21 272.2 274.54 239.36 282.54 219.36C286.31 209.94 299.04 172.86 299.04 172.86C299.04 172.86 307 135.6 308.54 126.86C311.54 109.86 316.54 57.36 316.54 39.36C316.54 21.36 312.87 6.19 311.04 0.86C298.24 12.06 276.37 72.19 267.04 100.86ZM90.04 485.36L138.04 465.86" stroke="#000000" stroke-opacity="1.000000" stroke-width="1.000000"/>
</svg>
